# xmcd
#
# Track frame offsets:
#	150
#	15752
#	35342
#	49745
#	65757
#	79137
#	94617
#	114065
#	124045
#	151927
#	161632
#	177440
#	194557
#	206587
#	221117
#
# Disc length: 3231 seconds
#
# Revision: 6
# Processed by: cddbd v1.5PL3 Copyright (c) Steve Scherf et al.
# Submitted via: dBpowerAMP V4.0
#
DISCID=c40c9d0f
DTITLE=Σωτηρία Μπέλλου - Μετά το Ρεμπέτικο
DYEAR=1900
DGENRE=Ρεμπέτικο
TTITLE0=Ζεϊμπέκικο
TTITLE1=Έλα φίλε
TTITLE2=Της αγάπης
TTITLE3=Το πιτσιρικάκι
TTITLE4=Ο κόσμος είναι σαν μπαξές
TTITLE5=Πλατεία Βάθη
TTITLE6=Μην κλαις
TTITLE7=Κάποιο βράδυ το όνειρο μου
TTITLE8=Δε λες κουβέντα
TTITLE9=Νταλίκα
TTITLE10=Θα με δικάσει
TTITLE11=Βαρέθηκα τη μοναξιά
TTITLE12=Μ'αδίκησες Ανατολή
TTITLE13=Καημός παλιού ρεμπέτη
TTITLE14=Τα τελευταία σήματα
EXTD=
EXTT0=
EXTT1=
EXTT2=
EXTT3=
EXTT4=
EXTT5=
EXTT6=
EXTT7=
EXTT8=
EXTT9=
EXTT10=
EXTT11=
EXTT12=
EXTT13=
EXTT14=
PLAYORDER=
